<svg xmlns="http://www.w3.org/2000/svg" xmlns:xlink="http://www.w3.org/1999/xlink" width="1000" zoomAndPan="magnify" viewBox="0 0 750 225" height="300" preserveAspectRatio="xMidYMid meet" version="1.0"><defs><g/><clipPath id="ab1aa6b6b0"><path d="M 43.246094 43.171875 L 703.617188 43.171875 L 703.617188 181.816406 L 43.246094 181.816406 Z M 43.246094 43.171875 " clip-rule="nonzero"/></clipPath></defs><rect x="-75" width="900" fill="#ffffff" y="-22.5" height="270" fill-opacity="1"/><rect x="-75" width="900" fill="#ffffff" y="-22.5" height="270" fill-opacity="1"/><g clip-path="url(#ab1aa6b6b0)"><path stroke-linecap="butt" transform="matrix(0.75, 0, 0, 0.75, 43.246148, 43.173337)" fill="none" stroke-linejoin="miter" d="M -0.0000720641 -0.00194933 L 880.494756 -0.00194933 L 880.494756 184.857433 L -0.0000720641 184.857433 Z M -0.0000720641 -0.00194933 " stroke="#000000" stroke-width="4" stroke-opacity="1" stroke-miterlimit="4"/></g><g fill="#000000" fill-opacity="1"><g transform="translate(58.417034, 132.8854)"><g><path d="M 6.421875 0 L 41.125 0 C 57.5 0 66.921875 -7.703125 66.921875 -21.09375 C 66.921875 -30.625 61.78125 -37.046875 52.6875 -38.96875 L 52.6875 -39.078125 C 60.171875 -41.125 64.5625 -46.90625 64.5625 -55.140625 C 64.5625 -68.109375 56 -75.484375 41.015625 -75.484375 L 6.421875 -75.484375 Z M 15.3125 -42.828125 L 15.3125 -67.5625 L 39.9375 -67.5625 C 50 -67.5625 55.78125 -62.96875 55.78125 -55.140625 C 55.78125 -47.328125 50 -42.828125 39.9375 -42.828125 Z M 15.3125 -7.921875 L 15.3125 -34.90625 L 39.9375 -34.90625 C 51.390625 -34.90625 58.140625 -29.984375 58.140625 -21.515625 C 58.140625 -12.84375 51.390625 -7.921875 39.9375 -7.921875 Z M 15.3125 -7.921875 "/></g></g></g><g fill="#000000" fill-opacity="1"><g transform="translate(128.533429, 132.8854)"><g><path d="M 33.09375 2.140625 C 45.1875 2.140625 55.359375 -3.96875 58.890625 -12.640625 L 51.828125 -15.53125 C 48.828125 -9.640625 41.65625 -5.25 33.1875 -5.25 C 21.515625 -5.25 12.84375 -13.0625 11.671875 -24.3125 L 57.1875 -24.3125 C 57.28125 -25.375 57.28125 -26.5625 57.28125 -27.515625 C 57.078125 -44.21875 46.6875 -56.21875 30.84375 -56.21875 C 14.78125 -56.21875 3.21875 -44.21875 3.21875 -27.625 C 3.21875 -10.390625 15.84375 2.140625 33.09375 2.140625 Z M 11.78125 -31.484375 C 13.28125 -41.765625 20.671875 -48.71875 30.734375 -48.71875 C 40.578125 -48.71875 47.546875 -42.515625 48.609375 -31.484375 Z M 11.78125 -31.484375 "/></g></g></g><g fill="#000000" fill-opacity="1"><g transform="translate(189.978933, 132.8854)"><g><path d="M 28.90625 2.140625 C 38.125 2.140625 46.359375 -3.640625 47.859375 -13.0625 L 41.21875 -15.84375 C 40.15625 -8.890625 35.125 -4.921875 29.65625 -4.921875 C 23.765625 -4.921875 20.03125 -9.3125 20.03125 -15.421875 L 20.03125 -47.328125 L 44.21875 -47.328125 L 44.21875 -54.078125 L 20.03125 -54.078125 L 20.03125 -72.0625 L 11.890625 -70.140625 L 11.890625 -54.078125 L 0 -54.078125 L 0 -47.328125 L 11.890625 -47.328125 L 11.890625 -14.5625 C 11.890625 -4.71875 18.734375 2.140625 28.90625 2.140625 Z M 28.90625 2.140625 "/></g></g></g><g fill="#000000" fill-opacity="1"><g transform="translate(238.257559, 132.8854)"><g><path d="M 28.90625 2.140625 C 38.125 2.140625 46.359375 -3.640625 47.859375 -13.0625 L 41.21875 -15.84375 C 40.15625 -8.890625 35.125 -4.921875 29.65625 -4.921875 C 23.765625 -4.921875 20.03125 -9.3125 20.03125 -15.421875 L 20.03125 -47.328125 L 44.21875 -47.328125 L 44.21875 -54.078125 L 20.03125 -54.078125 L 20.03125 -72.0625 L 11.890625 -70.140625 L 11.890625 -54.078125 L 0 -54.078125 L 0 -47.328125 L 11.890625 -47.328125 L 11.890625 -14.5625 C 11.890625 -4.71875 18.734375 2.140625 28.90625 2.140625 Z M 28.90625 2.140625 "/></g></g></g><g fill="#000000" fill-opacity="1"><g transform="translate(286.536185, 132.8854)"><g><path d="M 33.09375 2.140625 C 45.1875 2.140625 55.359375 -3.96875 58.890625 -12.640625 L 51.828125 -15.53125 C 48.828125 -9.640625 41.65625 -5.25 33.1875 -5.25 C 21.515625 -5.25 12.84375 -13.0625 11.671875 -24.3125 L 57.1875 -24.3125 C 57.28125 -25.375 57.28125 -26.5625 57.28125 -27.515625 C 57.078125 -44.21875 46.6875 -56.21875 30.84375 -56.21875 C 14.78125 -56.21875 3.21875 -44.21875 3.21875 -27.625 C 3.21875 -10.390625 15.84375 2.140625 33.09375 2.140625 Z M 11.78125 -31.484375 C 13.28125 -41.765625 20.671875 -48.71875 30.734375 -48.71875 C 40.578125 -48.71875 47.546875 -42.515625 48.609375 -31.484375 Z M 11.78125 -31.484375 "/></g></g></g><g fill="#000000" fill-opacity="1"><g transform="translate(347.981688, 132.8854)"><g><path d="M 34.375 -56.21875 C 24.953125 -56.21875 18.203125 -52.578125 13.59375 -46.046875 L 13.484375 -46.046875 L 12.75 -54.078125 L 5.359375 -54.078125 L 5.359375 0 L 13.484375 0 L 13.484375 -30.515625 C 13.484375 -41.546875 21.3125 -49.15625 32.125 -49.15625 C 40.6875 -49.15625 46.15625 -43.265625 46.15625 -34.046875 L 46.15625 0 L 54.390625 0 L 54.390625 -34.90625 C 54.390625 -48.296875 46.796875 -56.21875 34.375 -56.21875 Z M 34.375 -56.21875 "/></g></g></g><g fill="#000000" fill-opacity="1"><g transform="translate(407.179187, 132.8854)"><g><path d="M 31.796875 2.140625 C 45.71875 2.140625 57.1875 -6.859375 59.21875 -19.28125 L 51.296875 -20.875 C 49.796875 -11.5625 41.65625 -5.25 31.796875 -5.25 C 20.03125 -5.25 11.34375 -14.03125 11.34375 -26.984375 C 11.34375 -39.9375 19.375 -48.71875 30.203125 -48.71875 C 38.125 -48.71875 44.96875 -43.6875 47.109375 -35.875 L 55.03125 -37.6875 C 52.359375 -48.609375 42.40625 -56.21875 30.203125 -56.21875 C 14.34375 -56.21875 3.21875 -44.109375 3.21875 -26.984375 C 3.21875 -9.953125 14.984375 2.140625 31.796875 2.140625 Z M 31.796875 2.140625 "/></g></g></g><g fill="#000000" fill-opacity="1"><g transform="translate(468.517662, 132.8854)"><g><path d="M 32.015625 2.140625 C 49.46875 2.140625 60.921875 -9.421875 60.921875 -26.984375 C 60.921875 -44.65625 49.46875 -56.21875 32.015625 -56.21875 C 14.671875 -56.21875 3.21875 -44.65625 3.21875 -26.984375 C 3.21875 -9.421875 14.671875 2.140625 32.015625 2.140625 Z M 32.015625 -5.25 C 19.484375 -5.25 11.34375 -13.8125 11.34375 -26.984375 C 11.34375 -40.15625 19.484375 -48.71875 32.015625 -48.71875 C 44.546875 -48.71875 52.6875 -40.15625 52.6875 -26.984375 C 52.6875 -13.8125 44.546875 -5.25 32.015625 -5.25 Z M 32.015625 -5.25 "/></g></g></g><g fill="#000000" fill-opacity="1"><g transform="translate(532.639377, 132.8854)"><g><path d="M 24.84375 2.140625 C 34.265625 2.140625 41.015625 -1.5 45.609375 -8.03125 L 45.71875 -8.03125 L 46.46875 0 L 53.859375 0 L 53.859375 -54.078125 L 45.71875 -54.078125 L 45.71875 -23.5625 C 45.71875 -12.53125 37.90625 -4.921875 27.09375 -4.921875 C 18.53125 -4.921875 13.0625 -10.8125 13.0625 -20.03125 L 13.0625 -54.078125 L 4.8125 -54.078125 L 4.8125 -19.171875 C 4.8125 -5.78125 12.421875 2.140625 24.84375 2.140625 Z M 24.84375 2.140625 "/></g></g></g><g fill="#000000" fill-opacity="1"><g transform="translate(591.836875, 132.8854)"><g><path d="M 28.796875 -56.328125 C 21.953125 -56.328125 16.171875 -52.140625 13.171875 -45.609375 L 13.0625 -45.609375 L 12.3125 -54.078125 L 5.359375 -54.078125 L 5.359375 0 L 13.484375 0 L 13.484375 -29.765625 C 13.484375 -41.546875 18.953125 -48.71875 27.625 -48.71875 C 33.515625 -48.71875 37.484375 -44.65625 38.328125 -37.046875 L 45.40625 -39.40625 C 44.328125 -50.21875 38.015625 -56.328125 28.796875 -56.328125 Z M 28.796875 -56.328125 "/></g></g></g><g fill="#000000" fill-opacity="1"><g transform="translate(639.366166, 132.8854)"><g><path d="M 28.90625 2.140625 C 38.125 2.140625 46.359375 -3.640625 47.859375 -13.0625 L 41.21875 -15.84375 C 40.15625 -8.890625 35.125 -4.921875 29.65625 -4.921875 C 23.765625 -4.921875 20.03125 -9.3125 20.03125 -15.421875 L 20.03125 -47.328125 L 44.21875 -47.328125 L 44.21875 -54.078125 L 20.03125 -54.078125 L 20.03125 -72.0625 L 11.890625 -70.140625 L 11.890625 -54.078125 L 0 -54.078125 L 0 -47.328125 L 11.890625 -47.328125 L 11.890625 -14.5625 C 11.890625 -4.71875 18.734375 2.140625 28.90625 2.140625 Z M 28.90625 2.140625 "/></g></g></g><g fill="#000000" fill-opacity="1"><g transform="translate(63.128977, 163.277475)"><g><path d="M 12.921875 0.25 C 10.753906 0.25 8.800781 -0.226562 7.0625 -1.1875 C 5.320312 -2.144531 3.957031 -3.460938 2.96875 -5.140625 C 1.976562 -6.828125 1.484375 -8.71875 1.484375 -10.8125 C 1.484375 -12.914062 1.976562 -14.804688 2.96875 -16.484375 C 3.957031 -18.160156 5.328125 -19.476562 7.078125 -20.4375 C 8.828125 -21.394531 10.785156 -21.875 12.953125 -21.875 C 14.640625 -21.875 16.179688 -21.59375 17.578125 -21.03125 C 18.984375 -20.46875 20.179688 -19.628906 21.171875 -18.515625 L 19.15625 -16.5625 C 17.53125 -18.269531 15.503906 -19.125 13.078125 -19.125 C 11.460938 -19.125 10.003906 -18.765625 8.703125 -18.046875 C 7.410156 -17.328125 6.398438 -16.332031 5.671875 -15.0625 C 4.941406 -13.800781 4.578125 -12.382812 4.578125 -10.8125 C 4.578125 -9.25 4.941406 -7.832031 5.671875 -6.5625 C 6.398438 -5.300781 7.410156 -4.304688 8.703125 -3.578125 C 10.003906 -2.859375 11.460938 -2.5 13.078125 -2.5 C 15.484375 -2.5 17.507812 -3.363281 19.15625 -5.09375 L 21.171875 -3.15625 C 20.179688 -2.039062 18.976562 -1.191406 17.5625 -0.609375 C 16.15625 -0.0351562 14.609375 0.25 12.921875 0.25 Z M 12.921875 0.25 "/></g></g></g><g fill="#000000" fill-opacity="1"><g transform="translate(105.622872, 163.277475)"><g><path d="M 5.65625 -13.625 C 6.164062 -14.570312 6.925781 -15.289062 7.9375 -15.78125 C 8.945312 -16.28125 10.175781 -16.53125 11.625 -16.53125 L 11.625 -13.65625 C 11.457031 -13.675781 11.226562 -13.6875 10.9375 -13.6875 C 9.332031 -13.6875 8.070312 -13.207031 7.15625 -12.25 C 6.238281 -11.289062 5.78125 -9.925781 5.78125 -8.15625 L 5.78125 0 L 2.8125 0 L 2.8125 -16.375 L 5.65625 -16.375 Z M 5.65625 -13.625 "/></g></g></g><g fill="#000000" fill-opacity="1"><g transform="translate(138.446117, 163.277475)"><g><path d="M 17.609375 -8.09375 C 17.609375 -7.863281 17.59375 -7.566406 17.5625 -7.203125 L 4.265625 -7.203125 C 4.453125 -5.753906 5.082031 -4.59375 6.15625 -3.71875 C 7.238281 -2.84375 8.585938 -2.40625 10.203125 -2.40625 C 12.160156 -2.40625 13.734375 -3.066406 14.921875 -4.390625 L 16.5625 -2.46875 C 15.820312 -1.601562 14.898438 -0.941406 13.796875 -0.484375 C 12.691406 -0.0351562 11.460938 0.1875 10.109375 0.1875 C 8.378906 0.1875 6.84375 -0.164062 5.5 -0.875 C 4.164062 -1.59375 3.128906 -2.585938 2.390625 -3.859375 C 1.660156 -5.140625 1.296875 -6.582031 1.296875 -8.1875 C 1.296875 -9.769531 1.648438 -11.203125 2.359375 -12.484375 C 3.078125 -13.765625 4.054688 -14.757812 5.296875 -15.46875 C 6.546875 -16.175781 7.953125 -16.53125 9.515625 -16.53125 C 11.085938 -16.53125 12.484375 -16.175781 13.703125 -15.46875 C 14.929688 -14.757812 15.890625 -13.765625 16.578125 -12.484375 C 17.265625 -11.203125 17.609375 -9.738281 17.609375 -8.09375 Z M 9.515625 -14.03125 C 8.097656 -14.03125 6.910156 -13.597656 5.953125 -12.734375 C 4.992188 -11.867188 4.429688 -10.734375 4.265625 -9.328125 L 14.765625 -9.328125 C 14.609375 -10.710938 14.050781 -11.84375 13.09375 -12.71875 C 12.132812 -13.59375 10.941406 -14.03125 9.515625 -14.03125 Z M 9.515625 -14.03125 "/></g></g></g><g fill="#000000" fill-opacity="1"><g transform="translate(177.510495, 163.277475)"><g><path d="M 8.78125 -16.53125 C 11.039062 -16.53125 12.773438 -15.972656 13.984375 -14.859375 C 15.191406 -13.753906 15.796875 -12.097656 15.796875 -9.890625 L 15.796875 0 L 12.984375 0 L 12.984375 -2.15625 C 12.484375 -1.394531 11.773438 -0.8125 10.859375 -0.40625 C 9.941406 -0.0078125 8.859375 0.1875 7.609375 0.1875 C 5.773438 0.1875 4.304688 -0.253906 3.203125 -1.140625 C 2.097656 -2.023438 1.546875 -3.191406 1.546875 -4.640625 C 1.546875 -6.078125 2.070312 -7.234375 3.125 -8.109375 C 4.175781 -8.984375 5.84375 -9.421875 8.125 -9.421875 L 12.828125 -9.421875 L 12.828125 -10.015625 C 12.828125 -11.296875 12.453125 -12.273438 11.703125 -12.953125 C 10.960938 -13.628906 9.875 -13.96875 8.4375 -13.96875 C 7.46875 -13.96875 6.519531 -13.804688 5.59375 -13.484375 C 4.664062 -13.171875 3.882812 -12.742188 3.25 -12.203125 L 2.015625 -14.4375 C 2.859375 -15.113281 3.863281 -15.628906 5.03125 -15.984375 C 6.207031 -16.347656 7.457031 -16.53125 8.78125 -16.53125 Z M 8.09375 -2.109375 C 9.226562 -2.109375 10.207031 -2.359375 11.03125 -2.859375 C 11.851562 -3.359375 12.453125 -4.070312 12.828125 -5 L 12.828125 -7.296875 L 8.25 -7.296875 C 5.738281 -7.296875 4.484375 -6.453125 4.484375 -4.765625 C 4.484375 -3.929688 4.800781 -3.28125 5.4375 -2.8125 C 6.070312 -2.34375 6.957031 -2.109375 8.09375 -2.109375 Z M 8.09375 -2.109375 "/></g></g></g><g fill="#000000" fill-opacity="1"><g transform="translate(216.142313, 163.277475)"><g><path d="M 12.015625 -0.953125 C 11.585938 -0.585938 11.050781 -0.304688 10.40625 -0.109375 C 9.769531 0.0859375 9.113281 0.1875 8.4375 0.1875 C 6.789062 0.1875 5.515625 -0.253906 4.609375 -1.140625 C 3.703125 -2.023438 3.25 -3.289062 3.25 -4.9375 L 3.25 -13.9375 L 0.46875 -13.9375 L 0.46875 -16.375 L 3.25 -16.375 L 3.25 -19.96875 L 6.21875 -19.96875 L 6.21875 -16.375 L 10.90625 -16.375 L 10.90625 -13.9375 L 6.21875 -13.9375 L 6.21875 -5.0625 C 6.21875 -4.175781 6.4375 -3.492188 6.875 -3.015625 C 7.320312 -2.546875 7.957031 -2.3125 8.78125 -2.3125 C 9.6875 -2.3125 10.457031 -2.570312 11.09375 -3.09375 Z M 12.015625 -0.953125 "/></g></g></g><g fill="#000000" fill-opacity="1"><g transform="translate(249.089143, 163.277475)"><g><path d="M 2.8125 -16.375 L 5.78125 -16.375 L 5.78125 0 L 2.8125 0 Z M 4.296875 -19.53125 C 3.710938 -19.53125 3.226562 -19.710938 2.84375 -20.078125 C 2.46875 -20.453125 2.28125 -20.910156 2.28125 -21.453125 C 2.28125 -21.984375 2.46875 -22.4375 2.84375 -22.8125 C 3.226562 -23.195312 3.710938 -23.390625 4.296875 -23.390625 C 4.867188 -23.390625 5.34375 -23.207031 5.71875 -22.84375 C 6.101562 -22.488281 6.296875 -22.046875 6.296875 -21.515625 C 6.296875 -20.953125 6.101562 -20.476562 5.71875 -20.09375 C 5.34375 -19.71875 4.867188 -19.53125 4.296875 -19.53125 Z M 4.296875 -19.53125 "/></g></g></g><g fill="#000000" fill-opacity="1"><g transform="translate(277.86492, 163.277475)"><g><path d="M 17.3125 -16.375 L 10.140625 0 L 7.109375 0 L -0.0625 -16.375 L 3.03125 -16.375 L 8.65625 -3.25 L 14.40625 -16.375 Z M 17.3125 -16.375 "/></g></g></g><g fill="#000000" fill-opacity="1"><g transform="translate(315.291765, 163.277475)"><g><path d="M 17.609375 -8.09375 C 17.609375 -7.863281 17.59375 -7.566406 17.5625 -7.203125 L 4.265625 -7.203125 C 4.453125 -5.753906 5.082031 -4.59375 6.15625 -3.71875 C 7.238281 -2.84375 8.585938 -2.40625 10.203125 -2.40625 C 12.160156 -2.40625 13.734375 -3.066406 14.921875 -4.390625 L 16.5625 -2.46875 C 15.820312 -1.601562 14.898438 -0.941406 13.796875 -0.484375 C 12.691406 -0.0351562 11.460938 0.1875 10.109375 0.1875 C 8.378906 0.1875 6.84375 -0.164062 5.5 -0.875 C 4.164062 -1.59375 3.128906 -2.585938 2.390625 -3.859375 C 1.660156 -5.140625 1.296875 -6.582031 1.296875 -8.1875 C 1.296875 -9.769531 1.648438 -11.203125 2.359375 -12.484375 C 3.078125 -13.765625 4.054688 -14.757812 5.296875 -15.46875 C 6.546875 -16.175781 7.953125 -16.53125 9.515625 -16.53125 C 11.085938 -16.53125 12.484375 -16.175781 13.703125 -15.46875 C 14.929688 -14.757812 15.890625 -13.765625 16.578125 -12.484375 C 17.265625 -11.203125 17.609375 -9.738281 17.609375 -8.09375 Z M 9.515625 -14.03125 C 8.097656 -14.03125 6.910156 -13.597656 5.953125 -12.734375 C 4.992188 -11.867188 4.429688 -10.734375 4.265625 -9.328125 L 14.765625 -9.328125 C 14.609375 -10.710938 14.050781 -11.84375 13.09375 -12.71875 C 12.132812 -13.59375 10.941406 -14.03125 9.515625 -14.03125 Z M 9.515625 -14.03125 "/></g></g></g><g fill="#000000" fill-opacity="1"><g transform="translate(354.356154, 163.277475)"><g/></g></g><g fill="#000000" fill-opacity="1"><g transform="translate(382.822945, 163.277475)"><g><path d="M 9.546875 0.25 C 7.921875 0.25 6.347656 0 4.828125 -0.5 C 3.316406 -1.007812 2.128906 -1.664062 1.265625 -2.46875 L 2.40625 -4.890625 C 3.226562 -4.140625 4.285156 -3.53125 5.578125 -3.0625 C 6.867188 -2.601562 8.191406 -2.375 9.546875 -2.375 C 11.335938 -2.375 12.675781 -2.675781 13.5625 -3.28125 C 14.445312 -3.894531 14.890625 -4.707031 14.890625 -5.71875 C 14.890625 -6.457031 14.644531 -7.054688 14.15625 -7.515625 C 13.675781 -7.984375 13.082031 -8.34375 12.375 -8.59375 C 11.664062 -8.84375 10.660156 -9.117188 9.359375 -9.421875 C 7.734375 -9.816406 6.421875 -10.207031 5.421875 -10.59375 C 4.421875 -10.988281 3.566406 -11.59375 2.859375 -12.40625 C 2.148438 -13.21875 1.796875 -14.316406 1.796875 -15.703125 C 1.796875 -16.859375 2.097656 -17.898438 2.703125 -18.828125 C 3.304688 -19.753906 4.226562 -20.492188 5.46875 -21.046875 C 6.707031 -21.597656 8.242188 -21.875 10.078125 -21.875 C 11.347656 -21.875 12.601562 -21.707031 13.84375 -21.375 C 15.082031 -21.050781 16.144531 -20.582031 17.03125 -19.96875 L 16.015625 -17.5 C 15.109375 -18.070312 14.140625 -18.503906 13.109375 -18.796875 C 12.078125 -19.097656 11.066406 -19.25 10.078125 -19.25 C 8.328125 -19.25 7.015625 -18.929688 6.140625 -18.296875 C 5.265625 -17.660156 4.828125 -16.835938 4.828125 -15.828125 C 4.828125 -15.085938 5.070312 -14.484375 5.5625 -14.015625 C 6.0625 -13.554688 6.675781 -13.195312 7.40625 -12.9375 C 8.132812 -12.675781 9.128906 -12.398438 10.390625 -12.109375 C 12.015625 -11.722656 13.320312 -11.332031 14.3125 -10.9375 C 15.300781 -10.550781 16.148438 -9.953125 16.859375 -9.140625 C 17.566406 -8.335938 17.921875 -7.257812 17.921875 -5.90625 C 17.921875 -4.769531 17.613281 -3.734375 17 -2.796875 C 16.382812 -1.859375 15.445312 -1.113281 14.1875 -0.5625 C 12.925781 -0.0195312 11.378906 0.25 9.546875 0.25 Z M 9.546875 0.25 "/></g></g></g><g fill="#000000" fill-opacity="1"><g transform="translate(422.165371, 163.277475)"><g><path d="M 9.828125 0.1875 C 8.203125 0.1875 6.738281 -0.171875 5.4375 -0.890625 C 4.144531 -1.617188 3.128906 -2.613281 2.390625 -3.875 C 1.660156 -5.144531 1.296875 -6.582031 1.296875 -8.1875 C 1.296875 -9.789062 1.660156 -11.226562 2.390625 -12.5 C 3.128906 -13.769531 4.144531 -14.757812 5.4375 -15.46875 C 6.738281 -16.175781 8.203125 -16.53125 9.828125 -16.53125 C 11.453125 -16.53125 12.910156 -16.175781 14.203125 -15.46875 C 15.492188 -14.757812 16.503906 -13.769531 17.234375 -12.5 C 17.960938 -11.226562 18.328125 -9.789062 18.328125 -8.1875 C 18.328125 -6.582031 17.960938 -5.144531 17.234375 -3.875 C 16.503906 -2.613281 15.492188 -1.617188 14.203125 -0.890625 C 12.910156 -0.171875 11.453125 0.1875 9.828125 0.1875 Z M 9.828125 -2.40625 C 10.878906 -2.40625 11.820312 -2.644531 12.65625 -3.125 C 13.488281 -3.613281 14.140625 -4.296875 14.609375 -5.171875 C 15.085938 -6.046875 15.328125 -7.050781 15.328125 -8.1875 C 15.328125 -9.320312 15.085938 -10.328125 14.609375 -11.203125 C 14.140625 -12.078125 13.488281 -12.75 12.65625 -13.21875 C 11.820312 -13.695312 10.878906 -13.9375 9.828125 -13.9375 C 8.773438 -13.9375 7.832031 -13.695312 7 -13.21875 C 6.164062 -12.75 5.503906 -12.078125 5.015625 -11.203125 C 4.535156 -10.328125 4.296875 -9.320312 4.296875 -8.1875 C 4.296875 -7.050781 4.535156 -6.046875 5.015625 -5.171875 C 5.503906 -4.296875 6.164062 -3.613281 7 -3.125 C 7.832031 -2.644531 8.773438 -2.40625 9.828125 -2.40625 Z M 9.828125 -2.40625 "/></g></g></g><g fill="#000000" fill-opacity="1"><g transform="translate(461.940358, 163.277475)"><g><path d="M 2.8125 -22.9375 L 5.78125 -22.9375 L 5.78125 0 L 2.8125 0 Z M 2.8125 -22.9375 "/></g></g></g><g fill="#000000" fill-opacity="1"><g transform="translate(490.716147, 163.277475)"><g><path d="M 18.078125 -16.375 L 18.078125 0 L 15.265625 0 L 15.265625 -2.46875 C 14.671875 -1.625 13.882812 -0.96875 12.90625 -0.5 C 11.925781 -0.0390625 10.859375 0.1875 9.703125 0.1875 C 7.515625 0.1875 5.789062 -0.414062 4.53125 -1.625 C 3.28125 -2.832031 2.65625 -4.609375 2.65625 -6.953125 L 2.65625 -16.375 L 5.625 -16.375 L 5.625 -7.296875 C 5.625 -5.710938 6.003906 -4.507812 6.765625 -3.6875 C 7.523438 -2.875 8.617188 -2.46875 10.046875 -2.46875 C 11.609375 -2.46875 12.84375 -2.941406 13.75 -3.890625 C 14.65625 -4.835938 15.109375 -6.175781 15.109375 -7.90625 L 15.109375 -16.375 Z M 18.078125 -16.375 "/></g></g></g><g fill="#000000" fill-opacity="1"><g transform="translate(531.788813, 163.277475)"><g><path d="M 12.015625 -0.953125 C 11.585938 -0.585938 11.050781 -0.304688 10.40625 -0.109375 C 9.769531 0.0859375 9.113281 0.1875 8.4375 0.1875 C 6.789062 0.1875 5.515625 -0.253906 4.609375 -1.140625 C 3.703125 -2.023438 3.25 -3.289062 3.25 -4.9375 L 3.25 -13.9375 L 0.46875 -13.9375 L 0.46875 -16.375 L 3.25 -16.375 L 3.25 -19.96875 L 6.21875 -19.96875 L 6.21875 -16.375 L 10.90625 -16.375 L 10.90625 -13.9375 L 6.21875 -13.9375 L 6.21875 -5.0625 C 6.21875 -4.175781 6.4375 -3.492188 6.875 -3.015625 C 7.320312 -2.546875 7.957031 -2.3125 8.78125 -2.3125 C 9.6875 -2.3125 10.457031 -2.570312 11.09375 -3.09375 Z M 12.015625 -0.953125 "/></g></g></g><g fill="#000000" fill-opacity="1"><g transform="translate(564.735631, 163.277475)"><g><path d="M 2.8125 -16.375 L 5.78125 -16.375 L 5.78125 0 L 2.8125 0 Z M 4.296875 -19.53125 C 3.710938 -19.53125 3.226562 -19.710938 2.84375 -20.078125 C 2.46875 -20.453125 2.28125 -20.910156 2.28125 -21.453125 C 2.28125 -21.984375 2.46875 -22.4375 2.84375 -22.8125 C 3.226562 -23.195312 3.710938 -23.390625 4.296875 -23.390625 C 4.867188 -23.390625 5.34375 -23.207031 5.71875 -22.84375 C 6.101562 -22.488281 6.296875 -22.046875 6.296875 -21.515625 C 6.296875 -20.953125 6.101562 -20.476562 5.71875 -20.09375 C 5.34375 -19.71875 4.867188 -19.53125 4.296875 -19.53125 Z M 4.296875 -19.53125 "/></g></g></g><g fill="#000000" fill-opacity="1"><g transform="translate(593.51142, 163.277475)"><g><path d="M 9.828125 0.1875 C 8.203125 0.1875 6.738281 -0.171875 5.4375 -0.890625 C 4.144531 -1.617188 3.128906 -2.613281 2.390625 -3.875 C 1.660156 -5.144531 1.296875 -6.582031 1.296875 -8.1875 C 1.296875 -9.789062 1.660156 -11.226562 2.390625 -12.5 C 3.128906 -13.769531 4.144531 -14.757812 5.4375 -15.46875 C 6.738281 -16.175781 8.203125 -16.53125 9.828125 -16.53125 C 11.453125 -16.53125 12.910156 -16.175781 14.203125 -15.46875 C 15.492188 -14.757812 16.503906 -13.769531 17.234375 -12.5 C 17.960938 -11.226562 18.328125 -9.789062 18.328125 -8.1875 C 18.328125 -6.582031 17.960938 -5.144531 17.234375 -3.875 C 16.503906 -2.613281 15.492188 -1.617188 14.203125 -0.890625 C 12.910156 -0.171875 11.453125 0.1875 9.828125 0.1875 Z M 9.828125 -2.40625 C 10.878906 -2.40625 11.820312 -2.644531 12.65625 -3.125 C 13.488281 -3.613281 14.140625 -4.296875 14.609375 -5.171875 C 15.085938 -6.046875 15.328125 -7.050781 15.328125 -8.1875 C 15.328125 -9.320312 15.085938 -10.328125 14.609375 -11.203125 C 14.140625 -12.078125 13.488281 -12.75 12.65625 -13.21875 C 11.820312 -13.695312 10.878906 -13.9375 9.828125 -13.9375 C 8.773438 -13.9375 7.832031 -13.695312 7 -13.21875 C 6.164062 -12.75 5.503906 -12.078125 5.015625 -11.203125 C 4.535156 -10.328125 4.296875 -9.320312 4.296875 -8.1875 C 4.296875 -7.050781 4.535156 -6.046875 5.015625 -5.171875 C 5.503906 -4.296875 6.164062 -3.613281 7 -3.125 C 7.832031 -2.644531 8.773438 -2.40625 9.828125 -2.40625 Z M 9.828125 -2.40625 "/></g></g></g><g fill="#000000" fill-opacity="1"><g transform="translate(633.286407, 163.277475)"><g><path d="M 11.5625 -16.53125 C 13.644531 -16.53125 15.296875 -15.925781 16.515625 -14.71875 C 17.742188 -13.519531 18.359375 -11.753906 18.359375 -9.421875 L 18.359375 0 L 15.390625 0 L 15.390625 -9.09375 C 15.390625 -10.675781 15.007812 -11.867188 14.25 -12.671875 C 13.488281 -13.472656 12.394531 -13.875 10.96875 -13.875 C 9.363281 -13.875 8.097656 -13.40625 7.171875 -12.46875 C 6.242188 -11.53125 5.78125 -10.1875 5.78125 -8.4375 L 5.78125 0 L 2.8125 0 L 2.8125 -16.375 L 5.65625 -16.375 L 5.65625 -13.90625 C 6.25 -14.75 7.054688 -15.394531 8.078125 -15.84375 C 9.097656 -16.300781 10.257812 -16.53125 11.5625 -16.53125 Z M 11.5625 -16.53125 "/></g></g></g><g fill="#000000" fill-opacity="1"><g transform="translate(674.482634, 163.277475)"><g><path d="M 7.515625 0.1875 C 6.171875 0.1875 4.878906 0.0078125 3.640625 -0.34375 C 2.410156 -0.707031 1.441406 -1.171875 0.734375 -1.734375 L 1.984375 -4.078125 C 2.703125 -3.566406 3.578125 -3.15625 4.609375 -2.84375 C 5.640625 -2.53125 6.675781 -2.375 7.71875 -2.375 C 10.320312 -2.375 11.625 -3.117188 11.625 -4.609375 C 11.625 -5.097656 11.445312 -5.488281 11.09375 -5.78125 C 10.738281 -6.070312 10.300781 -6.28125 9.78125 -6.40625 C 9.257812 -6.539062 8.515625 -6.691406 7.546875 -6.859375 C 6.222656 -7.066406 5.144531 -7.300781 4.3125 -7.5625 C 3.476562 -7.832031 2.757812 -8.285156 2.15625 -8.921875 C 1.5625 -9.566406 1.265625 -10.46875 1.265625 -11.625 C 1.265625 -13.101562 1.878906 -14.289062 3.109375 -15.1875 C 4.347656 -16.082031 6.007812 -16.53125 8.09375 -16.53125 C 9.1875 -16.53125 10.28125 -16.394531 11.375 -16.125 C 12.46875 -15.863281 13.363281 -15.503906 14.0625 -15.046875 L 12.796875 -12.703125 C 11.453125 -13.566406 9.875 -14 8.0625 -14 C 6.8125 -14 5.851562 -13.789062 5.1875 -13.375 C 4.53125 -12.96875 4.203125 -12.425781 4.203125 -11.75 C 4.203125 -11.207031 4.382812 -10.78125 4.75 -10.46875 C 5.125 -10.164062 5.582031 -9.941406 6.125 -9.796875 C 6.675781 -9.648438 7.445312 -9.484375 8.4375 -9.296875 C 9.757812 -9.078125 10.828125 -8.835938 11.640625 -8.578125 C 12.453125 -8.316406 13.144531 -7.875 13.71875 -7.25 C 14.300781 -6.632812 14.59375 -5.773438 14.59375 -4.671875 C 14.59375 -3.179688 13.957031 -2 12.6875 -1.125 C 11.414062 -0.25 9.691406 0.1875 7.515625 0.1875 Z M 7.515625 0.1875 "/></g></g></g></svg>